<svg width="360" height="61" viewBox="0 0 360 61" fill="none" xmlns="http://www.w3.org/2000/svg">
<path d="M35.668 9.32617V10.3994H30.2812V9.32617H35.668ZM30.4863 5.04688V15H29.167V5.04688H30.4863ZM36.8164 5.04688V15H35.5039V5.04688H36.8164ZM43.3311 13.7354V9.92773C43.3311 9.63607 43.2718 9.38314 43.1533 9.16895C43.0394 8.9502 42.8662 8.78158 42.6338 8.66309C42.4014 8.5446 42.1143 8.48535 41.7725 8.48535C41.4535 8.48535 41.1732 8.54004 40.9316 8.64941C40.6947 8.75879 40.5078 8.90234 40.3711 9.08008C40.2389 9.25781 40.1729 9.44922 40.1729 9.6543H38.9082C38.9082 9.38997 38.9766 9.12793 39.1133 8.86816C39.25 8.6084 39.446 8.3737 39.7012 8.16406C39.9609 7.94987 40.2708 7.78125 40.6309 7.6582C40.9954 7.5306 41.401 7.4668 41.8477 7.4668C42.3854 7.4668 42.8594 7.55794 43.2695 7.74023C43.6842 7.92253 44.0078 8.19824 44.2402 8.56738C44.4772 8.93197 44.5957 9.38997 44.5957 9.94141V13.3867C44.5957 13.6328 44.6162 13.8949 44.6572 14.1729C44.7028 14.4508 44.7689 14.6901 44.8555 14.8906V15H43.5361C43.4723 14.8542 43.4222 14.6605 43.3857 14.4189C43.3493 14.1729 43.3311 13.945 43.3311 13.7354ZM43.5498 10.5156L43.5635 11.4043H42.2852C41.9251 11.4043 41.6038 11.4339 41.3213 11.4932C41.0387 11.5479 40.8018 11.6322 40.6104 11.7461C40.4189 11.86 40.2731 12.0036 40.1729 12.1768C40.0726 12.3454 40.0225 12.5436 40.0225 12.7715C40.0225 13.0039 40.0749 13.2158 40.1797 13.4072C40.2845 13.5986 40.4417 13.7513 40.6514 13.8652C40.8656 13.9746 41.1276 14.0293 41.4375 14.0293C41.8249 14.0293 42.1667 13.9473 42.4629 13.7832C42.7591 13.6191 42.9938 13.4186 43.167 13.1816C43.3447 12.9447 43.4404 12.7145 43.4541 12.4912L43.9941 13.0996C43.9622 13.291 43.8757 13.5029 43.7344 13.7354C43.5931 13.9678 43.404 14.1911 43.167 14.4053C42.9346 14.6149 42.6566 14.7904 42.333 14.9316C42.014 15.0684 41.654 15.1367 41.2529 15.1367C40.7516 15.1367 40.3118 15.0387 39.9336 14.8428C39.5599 14.6468 39.2682 14.3848 39.0586 14.0566C38.8535 13.724 38.751 13.3525 38.751 12.9424C38.751 12.5459 38.8285 12.1973 38.9834 11.8965C39.1383 11.5911 39.3617 11.3382 39.6533 11.1377C39.945 10.9326 40.2959 10.7777 40.7061 10.6729C41.1162 10.568 41.5742 10.5156 42.0801 10.5156H43.5498ZM47.8496 8.76562V15H46.585V7.60352H47.8154L47.8496 8.76562ZM50.1602 7.5625L50.1533 8.73828C50.0485 8.71549 49.9482 8.70182 49.8525 8.69727C49.7614 8.68815 49.6566 8.68359 49.5381 8.68359C49.2464 8.68359 48.9889 8.72917 48.7656 8.82031C48.5423 8.91146 48.3532 9.03906 48.1982 9.20312C48.0433 9.36719 47.9202 9.56315 47.8291 9.79102C47.7425 10.0143 47.6855 10.2604 47.6582 10.5293L47.3027 10.7344C47.3027 10.2878 47.346 9.86849 47.4326 9.47656C47.5238 9.08464 47.6628 8.73828 47.8496 8.4375C48.0365 8.13216 48.2734 7.89518 48.5605 7.72656C48.8522 7.55339 49.1986 7.4668 49.5996 7.4668C49.6908 7.4668 49.7956 7.47819 49.9141 7.50098C50.0326 7.51921 50.1146 7.53971 50.1602 7.5625ZM55.8545 13.5645V4.5H57.126V15H55.9639L55.8545 13.5645ZM50.8779 11.3838V11.2402C50.8779 10.6751 50.9463 10.1624 51.083 9.70215C51.2243 9.2373 51.4225 8.83854 51.6777 8.50586C51.9375 8.17318 52.2451 7.91797 52.6006 7.74023C52.9606 7.55794 53.3617 7.4668 53.8037 7.4668C54.2686 7.4668 54.6742 7.54883 55.0205 7.71289C55.3714 7.8724 55.6676 8.1071 55.9092 8.41699C56.1553 8.72233 56.349 9.09147 56.4902 9.52441C56.6315 9.95736 56.7295 10.4473 56.7842 10.9941V11.623C56.734 12.1654 56.6361 12.653 56.4902 13.0859C56.349 13.5189 56.1553 13.888 55.9092 14.1934C55.6676 14.4987 55.3714 14.7334 55.0205 14.8975C54.6696 15.057 54.2594 15.1367 53.79 15.1367C53.3571 15.1367 52.9606 15.0433 52.6006 14.8564C52.2451 14.6696 51.9375 14.4076 51.6777 14.0703C51.4225 13.7331 51.2243 13.3366 51.083 12.8809C50.9463 12.4206 50.8779 11.9215 50.8779 11.3838ZM52.1494 11.2402V11.3838C52.1494 11.7529 52.1859 12.0993 52.2588 12.4229C52.3363 12.7464 52.4548 13.0312 52.6143 13.2773C52.7738 13.5234 52.9766 13.7171 53.2227 13.8584C53.4688 13.9951 53.7627 14.0635 54.1045 14.0635C54.5238 14.0635 54.8678 13.9746 55.1367 13.7969C55.4102 13.6191 55.6289 13.3844 55.793 13.0928C55.957 12.8011 56.0846 12.4844 56.1758 12.1426V10.4951C56.1211 10.2445 56.0413 10.0029 55.9365 9.77051C55.8363 9.53353 55.7041 9.32389 55.54 9.1416C55.3805 8.95475 55.1823 8.80664 54.9453 8.69727C54.7129 8.58789 54.4372 8.5332 54.1182 8.5332C53.7718 8.5332 53.4733 8.60612 53.2227 8.75195C52.9766 8.89323 52.7738 9.08919 52.6143 9.33984C52.4548 9.58594 52.3363 9.87305 52.2588 10.2012C52.1859 10.5247 52.1494 10.8711 52.1494 11.2402ZM60.9678 13.6875L62.8682 7.60352H63.7021L63.5381 8.81348L61.6035 15H60.79L60.9678 13.6875ZM59.6895 7.60352L61.3096 13.7559L61.4258 15H60.5713L58.4248 7.60352H59.6895ZM65.5205 13.708L67.0654 7.60352H68.3232L66.1768 15H65.3291L65.5205 13.708ZM63.8867 7.60352L65.7461 13.585L65.958 15H65.1514L63.1621 8.7998L62.998 7.60352H63.8867ZM73.9834 13.7354V9.92773C73.9834 9.63607 73.9242 9.38314 73.8057 9.16895C73.6917 8.9502 73.5186 8.78158 73.2861 8.66309C73.0537 8.5446 72.7666 8.48535 72.4248 8.48535C72.1058 8.48535 71.8255 8.54004 71.584 8.64941C71.347 8.75879 71.1602 8.90234 71.0234 9.08008C70.8913 9.25781 70.8252 9.44922 70.8252 9.6543H69.5605C69.5605 9.38997 69.6289 9.12793 69.7656 8.86816C69.9023 8.6084 70.0983 8.3737 70.3535 8.16406C70.6133 7.94987 70.9232 7.78125 71.2832 7.6582C71.6478 7.5306 72.0534 7.4668 72.5 7.4668C73.0378 7.4668 73.5117 7.55794 73.9219 7.74023C74.3366 7.92253 74.6602 8.19824 74.8926 8.56738C75.1296 8.93197 75.248 9.38997 75.248 9.94141V13.3867C75.248 13.6328 75.2686 13.8949 75.3096 14.1729C75.3551 14.4508 75.4212 14.6901 75.5078 14.8906V15H74.1885C74.1247 14.8542 74.0745 14.6605 74.0381 14.4189C74.0016 14.1729 73.9834 13.945 73.9834 13.7354ZM74.2021 10.5156L74.2158 11.4043H72.9375C72.5775 11.4043 72.2562 11.4339 71.9736 11.4932C71.6911 11.5479 71.4541 11.6322 71.2627 11.7461C71.0713 11.86 70.9255 12.0036 70.8252 12.1768C70.7249 12.3454 70.6748 12.5436 70.6748 12.7715C70.6748 13.0039 70.7272 13.2158 70.832 13.4072C70.9368 13.5986 71.0941 13.7513 71.3037 13.8652C71.5179 13.9746 71.7799 14.0293 72.0898 14.0293C72.4772 14.0293 72.819 13.9473 73.1152 13.7832C73.4115 13.6191 73.6462 13.4186 73.8193 13.1816C73.9971 12.9447 74.0928 12.7145 74.1064 12.4912L74.6465 13.0996C74.6146 13.291 74.528 13.5029 74.3867 13.7354C74.2454 13.9678 74.0563 14.1911 73.8193 14.4053C73.5869 14.6149 73.3089 14.7904 72.9854 14.9316C72.6663 15.0684 72.3063 15.1367 71.9053 15.1367C71.404 15.1367 70.9642 15.0387 70.5859 14.8428C70.2122 14.6468 69.9206 14.3848 69.7109 14.0566C69.5059 13.724 69.4033 13.3525 69.4033 12.9424C69.4033 12.5459 69.4808 12.1973 69.6357 11.8965C69.7907 11.5911 70.014 11.3382 70.3057 11.1377C70.5973 10.9326 70.9482 10.7777 71.3584 10.6729C71.7686 10.568 72.2266 10.5156 72.7324 10.5156H74.2021ZM78.502 8.76562V15H77.2373V7.60352H78.4678L78.502 8.76562ZM80.8125 7.5625L80.8057 8.73828C80.7008 8.71549 80.6006 8.70182 80.5049 8.69727C80.4137 8.68815 80.3089 8.68359 80.1904 8.68359C79.8988 8.68359 79.6413 8.72917 79.418 8.82031C79.1947 8.91146 79.0055 9.03906 78.8506 9.20312C78.6956 9.36719 78.5726 9.56315 78.4814 9.79102C78.3949 10.0143 78.3379 10.2604 78.3105 10.5293L77.9551 10.7344C77.9551 10.2878 77.9984 9.86849 78.085 9.47656C78.1761 9.08464 78.3151 8.73828 78.502 8.4375C78.6888 8.13216 78.9258 7.89518 79.2129 7.72656C79.5046 7.55339 79.8509 7.4668 80.252 7.4668C80.3431 7.4668 80.4479 7.47819 80.5664 7.50098C80.6849 7.51921 80.7669 7.53971 80.8125 7.5625ZM84.9141 15.1367C84.3991 15.1367 83.932 15.0501 83.5127 14.877C83.098 14.6992 82.7402 14.4508 82.4395 14.1318C82.1432 13.8128 81.9154 13.4346 81.7559 12.9971C81.5964 12.5596 81.5166 12.0811 81.5166 11.5615V11.2744C81.5166 10.6729 81.6055 10.1374 81.7832 9.66797C81.9609 9.19401 82.2025 8.79297 82.5078 8.46484C82.8132 8.13672 83.1595 7.88835 83.5469 7.71973C83.9342 7.55111 84.3353 7.4668 84.75 7.4668C85.2786 7.4668 85.7344 7.55794 86.1172 7.74023C86.5046 7.92253 86.8213 8.17773 87.0674 8.50586C87.3135 8.82943 87.4958 9.21224 87.6143 9.6543C87.7327 10.0918 87.792 10.5703 87.792 11.0898V11.6572H82.2686V10.625H86.5273V10.5293C86.5091 10.2012 86.4408 9.88216 86.3223 9.57227C86.2083 9.26237 86.026 9.00716 85.7754 8.80664C85.5247 8.60612 85.1829 8.50586 84.75 8.50586C84.4629 8.50586 84.1986 8.56738 83.957 8.69043C83.7155 8.80892 83.5081 8.98665 83.335 9.22363C83.1618 9.46061 83.0273 9.75 82.9316 10.0918C82.8359 10.4336 82.7881 10.8278 82.7881 11.2744V11.5615C82.7881 11.9124 82.8359 12.2428 82.9316 12.5527C83.0319 12.8581 83.1755 13.127 83.3623 13.3594C83.5537 13.5918 83.7839 13.7741 84.0527 13.9062C84.3262 14.0384 84.6361 14.1045 84.9824 14.1045C85.429 14.1045 85.8073 14.0133 86.1172 13.8311C86.4271 13.6488 86.6982 13.4049 86.9307 13.0996L87.6963 13.708C87.5368 13.9495 87.334 14.1797 87.0879 14.3984C86.8418 14.6172 86.5387 14.7949 86.1787 14.9316C85.8232 15.0684 85.4017 15.1367 84.9141 15.1367ZM98.9414 11.835H100.254C100.186 12.4639 100.006 13.0267 99.7139 13.5234C99.4222 14.0202 99.0098 14.4144 98.4766 14.7061C97.9434 14.9932 97.278 15.1367 96.4805 15.1367C95.8971 15.1367 95.3662 15.0273 94.8877 14.8086C94.4137 14.5898 94.0059 14.2799 93.6641 13.8789C93.3223 13.4733 93.0579 12.988 92.8711 12.4229C92.6888 11.8532 92.5977 11.2197 92.5977 10.5225V9.53125C92.5977 8.83398 92.6888 8.2028 92.8711 7.6377C93.0579 7.06803 93.3245 6.5804 93.6709 6.1748C94.0218 5.76921 94.4434 5.45703 94.9355 5.23828C95.4277 5.01953 95.9814 4.91016 96.5967 4.91016C97.3486 4.91016 97.9844 5.05143 98.5039 5.33398C99.0234 5.61654 99.4268 6.00846 99.7139 6.50977C100.006 7.00651 100.186 7.58301 100.254 8.23926H98.9414C98.8776 7.77441 98.7591 7.37565 98.5859 7.04297C98.4128 6.70573 98.1667 6.44596 97.8477 6.26367C97.5286 6.08138 97.1117 5.99023 96.5967 5.99023C96.1546 5.99023 95.765 6.07454 95.4277 6.24316C95.0951 6.41178 94.8148 6.65104 94.5869 6.96094C94.3636 7.27083 94.195 7.64225 94.0811 8.0752C93.9671 8.50814 93.9102 8.98893 93.9102 9.51758V10.5225C93.9102 11.0101 93.9603 11.4681 94.0605 11.8965C94.1654 12.3249 94.3226 12.7008 94.5322 13.0244C94.7419 13.348 95.0085 13.6032 95.332 13.79C95.6556 13.9723 96.0384 14.0635 96.4805 14.0635C97.041 14.0635 97.4876 13.9746 97.8203 13.7969C98.153 13.6191 98.4036 13.3639 98.5723 13.0312C98.7454 12.6986 98.8685 12.2998 98.9414 11.835ZM103.125 4.5V15H101.86V4.5H103.125ZM102.824 11.0215L102.298 11.001C102.302 10.4951 102.378 10.028 102.523 9.59961C102.669 9.16667 102.874 8.79069 103.139 8.47168C103.403 8.15267 103.717 7.90658 104.082 7.7334C104.451 7.55566 104.859 7.4668 105.306 7.4668C105.67 7.4668 105.998 7.51693 106.29 7.61719C106.582 7.71289 106.83 7.86784 107.035 8.08203C107.245 8.29622 107.404 8.57422 107.514 8.91602C107.623 9.25326 107.678 9.66569 107.678 10.1533V15H106.406V10.1396C106.406 9.75228 106.349 9.44238 106.235 9.20996C106.121 8.97298 105.955 8.80208 105.736 8.69727C105.518 8.58789 105.249 8.5332 104.93 8.5332C104.615 8.5332 104.328 8.59928 104.068 8.73145C103.813 8.86361 103.592 9.0459 103.405 9.27832C103.223 9.51074 103.079 9.77734 102.975 10.0781C102.874 10.3743 102.824 10.6888 102.824 11.0215ZM112.641 15.1367C112.126 15.1367 111.659 15.0501 111.239 14.877C110.825 14.6992 110.467 14.4508 110.166 14.1318C109.87 13.8128 109.642 13.4346 109.482 12.9971C109.323 12.5596 109.243 12.0811 109.243 11.5615V11.2744C109.243 10.6729 109.332 10.1374 109.51 9.66797C109.688 9.19401 109.929 8.79297 110.234 8.46484C110.54 8.13672 110.886 7.88835 111.273 7.71973C111.661 7.55111 112.062 7.4668 112.477 7.4668C113.005 7.4668 113.461 7.55794 113.844 7.74023C114.231 7.92253 114.548 8.17773 114.794 8.50586C115.04 8.82943 115.222 9.21224 115.341 9.6543C115.459 10.0918 115.519 10.5703 115.519 11.0898V11.6572H109.995V10.625H114.254V10.5293C114.236 10.2012 114.167 9.88216 114.049 9.57227C113.935 9.26237 113.753 9.00716 113.502 8.80664C113.251 8.60612 112.91 8.50586 112.477 8.50586C112.189 8.50586 111.925 8.56738 111.684 8.69043C111.442 8.80892 111.235 8.98665 111.062 9.22363C110.888 9.46061 110.754 9.75 110.658 10.0918C110.562 10.4336 110.515 10.8278 110.515 11.2744V11.5615C110.515 11.9124 110.562 12.2428 110.658 12.5527C110.758 12.8581 110.902 13.127 111.089 13.3594C111.28 13.5918 111.51 13.7741 111.779 13.9062C112.053 14.0384 112.363 14.1045 112.709 14.1045C113.156 14.1045 113.534 14.0133 113.844 13.8311C114.154 13.6488 114.425 13.4049 114.657 13.0996L115.423 13.708C115.263 13.9495 115.061 14.1797 114.814 14.3984C114.568 14.6172 114.265 14.7949 113.905 14.9316C113.55 15.0684 113.128 15.1367 112.641 15.1367ZM119.955 14.0977C120.256 14.0977 120.534 14.0361 120.789 13.9131C121.044 13.79 121.254 13.6214 121.418 13.4072C121.582 13.1885 121.675 12.9401 121.698 12.6621H122.901C122.879 13.0996 122.73 13.5075 122.457 13.8857C122.188 14.2594 121.835 14.5625 121.397 14.7949C120.96 15.0228 120.479 15.1367 119.955 15.1367C119.399 15.1367 118.914 15.0387 118.499 14.8428C118.089 14.6468 117.747 14.3779 117.474 14.0361C117.205 13.6943 117.002 13.3024 116.865 12.8604C116.733 12.4137 116.667 11.9421 116.667 11.4453V11.1582C116.667 10.6615 116.733 10.1921 116.865 9.75C117.002 9.30339 117.205 8.90918 117.474 8.56738C117.747 8.22559 118.089 7.95671 118.499 7.76074C118.914 7.56478 119.399 7.4668 119.955 7.4668C120.534 7.4668 121.04 7.58529 121.473 7.82227C121.906 8.05469 122.245 8.3737 122.491 8.7793C122.742 9.18034 122.879 9.63607 122.901 10.1465H121.698C121.675 9.84115 121.589 9.56543 121.438 9.31934C121.293 9.07324 121.092 8.87728 120.837 8.73145C120.586 8.58105 120.292 8.50586 119.955 8.50586C119.568 8.50586 119.242 8.58333 118.978 8.73828C118.718 8.88867 118.51 9.09375 118.355 9.35352C118.205 9.60872 118.096 9.89355 118.027 10.208C117.964 10.5179 117.932 10.8346 117.932 11.1582V11.4453C117.932 11.7689 117.964 12.0879 118.027 12.4023C118.091 12.7168 118.198 13.0016 118.349 13.2568C118.504 13.512 118.711 13.7171 118.971 13.8721C119.235 14.0225 119.563 14.0977 119.955 14.0977ZM125.595 4.5V15H124.323V4.5H125.595ZM130.113 7.60352L126.887 11.0557L125.082 12.9287L124.979 11.582L126.271 10.0371L128.568 7.60352H130.113ZM128.958 15L126.319 11.4727L126.976 10.3447L130.448 15H128.958Z" fill="#4F4F4F"/>
<mask id="mask0_134_5906" style="mask-type:alpha" maskUnits="userSpaceOnUse" x="0" y="0" width="20" height="20">
<rect width="20" height="20" fill="#4F4F4F"/>
</mask>
<g mask="url(#mask0_134_5906)">
<path d="M7.61589 12.3841V7.61589H12.3841V12.3841H7.61589ZM8.80795 11.1921H11.1921V8.80795H8.80795V11.1921ZM7.01987 19V17.1523H4.78477C4.22848 17.1523 3.76676 16.9687 3.3996 16.6016C3.03166 16.2336 2.84768 15.7715 2.84768 15.2152V12.9801H1V11.7881H2.84768V8.21192H1V7.01987H2.84768V4.78477C2.84768 4.22848 3.03166 3.76676 3.3996 3.3996C3.76676 3.03166 4.22848 2.84768 4.78477 2.84768H7.01987V1H8.21192V2.84768H11.7881V1H12.9801V2.84768H15.2152C15.7715 2.84768 16.2336 3.03166 16.6016 3.3996C16.9687 3.76676 17.1523 4.22848 17.1523 4.78477V7.01987H19V8.21192H17.1523V11.7881H19V12.9801H17.1523V15.2152C17.1523 15.7715 16.9687 16.2336 16.6016 16.6016C16.2336 16.9687 15.7715 17.1523 15.2152 17.1523H12.9801V19H11.7881V17.1523H8.21192V19H7.01987ZM15.2152 15.9603C15.4139 15.9603 15.5876 15.8856 15.7362 15.7362C15.8856 15.5876 15.9603 15.4139 15.9603 15.2152V4.78477C15.9603 4.58609 15.8856 4.41245 15.7362 4.26384C15.5876 4.11444 15.4139 4.03974 15.2152 4.03974H4.78477C4.58609 4.03974 4.41245 4.11444 4.26384 4.26384C4.11444 4.41245 4.03974 4.58609 4.03974 4.78477V15.2152C4.03974 15.4139 4.11444 15.5876 4.26384 15.7362C4.41245 15.8856 4.58609 15.9603 4.78477 15.9603H15.2152Z" fill="#4F4F4F"/>
</g>
<path d="M39.4092 53.4844C39.4092 53.252 39.3727 53.0469 39.2998 52.8691C39.2314 52.6868 39.1084 52.5228 38.9307 52.377C38.7575 52.2311 38.516 52.0921 38.2061 51.96C37.9007 51.8278 37.5133 51.6934 37.0439 51.5566C36.5518 51.4108 36.1074 51.249 35.7109 51.0713C35.3145 50.889 34.9749 50.6816 34.6924 50.4492C34.4098 50.2168 34.1934 49.9502 34.043 49.6494C33.8926 49.3486 33.8174 49.0046 33.8174 48.6172C33.8174 48.2298 33.8971 47.8721 34.0566 47.5439C34.2161 47.2158 34.444 46.931 34.7402 46.6895C35.041 46.4434 35.3988 46.252 35.8135 46.1152C36.2282 45.9785 36.6908 45.9102 37.2012 45.9102C37.9486 45.9102 38.582 46.0537 39.1016 46.3408C39.6257 46.6234 40.0244 46.9948 40.2979 47.4551C40.5713 47.9108 40.708 48.3984 40.708 48.918H39.3955C39.3955 48.5443 39.3158 48.2139 39.1562 47.9268C38.9967 47.6351 38.7552 47.4072 38.4316 47.2432C38.1081 47.0745 37.6979 46.9902 37.2012 46.9902C36.7318 46.9902 36.3444 47.0609 36.0391 47.2021C35.7337 47.3434 35.5059 47.5348 35.3555 47.7764C35.2096 48.0179 35.1367 48.2936 35.1367 48.6035C35.1367 48.8132 35.18 49.0046 35.2666 49.1777C35.3577 49.3464 35.4967 49.5036 35.6836 49.6494C35.875 49.7952 36.1165 49.9297 36.4082 50.0527C36.7044 50.1758 37.0576 50.2943 37.4678 50.4082C38.0329 50.5677 38.5205 50.7454 38.9307 50.9414C39.3408 51.1374 39.6781 51.3584 39.9424 51.6045C40.2113 51.846 40.4095 52.1217 40.5371 52.4316C40.6693 52.737 40.7354 53.0833 40.7354 53.4707C40.7354 53.8763 40.6533 54.2432 40.4893 54.5713C40.3252 54.8994 40.0905 55.1797 39.7852 55.4121C39.4798 55.6445 39.113 55.8245 38.6846 55.9521C38.2607 56.0752 37.7868 56.1367 37.2627 56.1367C36.8024 56.1367 36.349 56.0729 35.9023 55.9453C35.4603 55.8177 35.057 55.6263 34.6924 55.3711C34.3324 55.1159 34.043 54.8014 33.8242 54.4277C33.61 54.0495 33.5029 53.612 33.5029 53.1152H34.8154C34.8154 53.457 34.8815 53.751 35.0137 53.9971C35.1458 54.2386 35.3258 54.4391 35.5537 54.5986C35.7861 54.7581 36.0482 54.8766 36.3398 54.9541C36.6361 55.027 36.9437 55.0635 37.2627 55.0635C37.723 55.0635 38.1126 54.9997 38.4316 54.8721C38.7507 54.7445 38.9922 54.5622 39.1562 54.3252C39.3249 54.0882 39.4092 53.8079 39.4092 53.4844ZM41.8906 52.3838V52.2266C41.8906 51.6934 41.9681 51.1989 42.123 50.7432C42.278 50.2829 42.5013 49.8841 42.793 49.5469C43.0846 49.2051 43.4378 48.9408 43.8525 48.7539C44.2673 48.5625 44.7321 48.4668 45.2471 48.4668C45.7666 48.4668 46.2337 48.5625 46.6484 48.7539C47.0677 48.9408 47.4232 49.2051 47.7148 49.5469C48.0111 49.8841 48.2367 50.2829 48.3916 50.7432C48.5465 51.1989 48.624 51.6934 48.624 52.2266V52.3838C48.624 52.917 48.5465 53.4115 48.3916 53.8672C48.2367 54.3229 48.0111 54.7217 47.7148 55.0635C47.4232 55.4007 47.07 55.665 46.6553 55.8564C46.2451 56.0433 45.7803 56.1367 45.2607 56.1367C44.7412 56.1367 44.2741 56.0433 43.8594 55.8564C43.4447 55.665 43.0892 55.4007 42.793 55.0635C42.5013 54.7217 42.278 54.3229 42.123 53.8672C41.9681 53.4115 41.8906 52.917 41.8906 52.3838ZM43.1553 52.2266V52.3838C43.1553 52.7529 43.1986 53.1016 43.2852 53.4297C43.3717 53.7533 43.5016 54.0404 43.6748 54.291C43.8525 54.5417 44.0736 54.7399 44.3379 54.8857C44.6022 55.027 44.9098 55.0977 45.2607 55.0977C45.6071 55.0977 45.9102 55.027 46.1699 54.8857C46.4342 54.7399 46.653 54.5417 46.8262 54.291C46.9993 54.0404 47.1292 53.7533 47.2158 53.4297C47.307 53.1016 47.3525 52.7529 47.3525 52.3838V52.2266C47.3525 51.862 47.307 51.5179 47.2158 51.1943C47.1292 50.8662 46.9971 50.5768 46.8193 50.3262C46.6462 50.071 46.4274 49.8704 46.1631 49.7246C45.9033 49.5788 45.598 49.5059 45.2471 49.5059C44.9007 49.5059 44.5954 49.5788 44.3311 49.7246C44.0713 49.8704 43.8525 50.071 43.6748 50.3262C43.5016 50.5768 43.3717 50.8662 43.2852 51.1943C43.1986 51.5179 43.1553 51.862 43.1553 52.2266ZM52.0967 56H50.832V47.8242C50.832 47.291 50.9277 46.8421 51.1191 46.4775C51.3151 46.1084 51.5954 45.8304 51.96 45.6436C52.3245 45.4521 52.7575 45.3564 53.2588 45.3564C53.4046 45.3564 53.5505 45.3656 53.6963 45.3838C53.8467 45.402 53.9925 45.4294 54.1338 45.4658L54.0654 46.498C53.9697 46.4753 53.8604 46.4593 53.7373 46.4502C53.6188 46.4411 53.5003 46.4365 53.3818 46.4365C53.113 46.4365 52.8805 46.4912 52.6846 46.6006C52.4932 46.7054 52.3473 46.8604 52.2471 47.0654C52.1468 47.2705 52.0967 47.5234 52.0967 47.8242V56ZM53.6689 48.6035V49.5742H49.6631V48.6035H53.6689ZM58.1738 48.6035V49.5742H54.1748V48.6035H58.1738ZM55.5283 46.8057H56.793V54.168C56.793 54.4186 56.8317 54.6077 56.9092 54.7354C56.9867 54.863 57.0869 54.9473 57.21 54.9883C57.333 55.0293 57.4652 55.0498 57.6064 55.0498C57.7113 55.0498 57.8206 55.0407 57.9346 55.0225C58.0531 54.9997 58.1419 54.9814 58.2012 54.9678L58.208 56C58.1077 56.0319 57.9756 56.0615 57.8115 56.0889C57.652 56.1208 57.4583 56.1367 57.2305 56.1367C56.9206 56.1367 56.6357 56.0752 56.376 55.9521C56.1162 55.8291 55.9089 55.624 55.7539 55.3369C55.6035 55.0452 55.5283 54.6533 55.5283 54.1611V46.8057ZM61.5303 54.6875L63.4307 48.6035H64.2646L64.1006 49.8135L62.166 56H61.3525L61.5303 54.6875ZM60.252 48.6035L61.8721 54.7559L61.9883 56H61.1338L58.9873 48.6035H60.252ZM66.083 54.708L67.6279 48.6035H68.8857L66.7393 56H65.8916L66.083 54.708ZM64.4492 48.6035L66.3086 54.585L66.5205 56H65.7139L63.7246 49.7998L63.5605 48.6035H64.4492ZM74.5459 54.7354V50.9277C74.5459 50.6361 74.4867 50.3831 74.3682 50.1689C74.2542 49.9502 74.0811 49.7816 73.8486 49.6631C73.6162 49.5446 73.3291 49.4854 72.9873 49.4854C72.6683 49.4854 72.388 49.54 72.1465 49.6494C71.9095 49.7588 71.7227 49.9023 71.5859 50.0801C71.4538 50.2578 71.3877 50.4492 71.3877 50.6543H70.123C70.123 50.39 70.1914 50.1279 70.3281 49.8682C70.4648 49.6084 70.6608 49.3737 70.916 49.1641C71.1758 48.9499 71.4857 48.7812 71.8457 48.6582C72.2103 48.5306 72.6159 48.4668 73.0625 48.4668C73.6003 48.4668 74.0742 48.5579 74.4844 48.7402C74.8991 48.9225 75.2227 49.1982 75.4551 49.5674C75.6921 49.932 75.8105 50.39 75.8105 50.9414V54.3867C75.8105 54.6328 75.8311 54.8949 75.8721 55.1729C75.9176 55.4508 75.9837 55.6901 76.0703 55.8906V56H74.751C74.6872 55.8542 74.637 55.6605 74.6006 55.4189C74.5641 55.1729 74.5459 54.945 74.5459 54.7354ZM74.7646 51.5156L74.7783 52.4043H73.5C73.14 52.4043 72.8187 52.4339 72.5361 52.4932C72.2536 52.5479 72.0166 52.6322 71.8252 52.7461C71.6338 52.86 71.488 53.0036 71.3877 53.1768C71.2874 53.3454 71.2373 53.5436 71.2373 53.7715C71.2373 54.0039 71.2897 54.2158 71.3945 54.4072C71.4993 54.5986 71.6566 54.7513 71.8662 54.8652C72.0804 54.9746 72.3424 55.0293 72.6523 55.0293C73.0397 55.0293 73.3815 54.9473 73.6777 54.7832C73.974 54.6191 74.2087 54.4186 74.3818 54.1816C74.5596 53.9447 74.6553 53.7145 74.6689 53.4912L75.209 54.0996C75.1771 54.291 75.0905 54.5029 74.9492 54.7354C74.8079 54.9678 74.6188 55.1911 74.3818 55.4053C74.1494 55.6149 73.8714 55.7904 73.5479 55.9316C73.2288 56.0684 72.8688 56.1367 72.4678 56.1367C71.9665 56.1367 71.5267 56.0387 71.1484 55.8428C70.7747 55.6468 70.4831 55.3848 70.2734 55.0566C70.0684 54.724 69.9658 54.3525 69.9658 53.9424C69.9658 53.5459 70.0433 53.1973 70.1982 52.8965C70.3532 52.5911 70.5765 52.3382 70.8682 52.1377C71.1598 51.9326 71.5107 51.7777 71.9209 51.6729C72.3311 51.568 72.7891 51.5156 73.2949 51.5156H74.7646ZM79.0645 49.7656V56H77.7998V48.6035H79.0303L79.0645 49.7656ZM81.375 48.5625L81.3682 49.7383C81.2633 49.7155 81.1631 49.7018 81.0674 49.6973C80.9762 49.6882 80.8714 49.6836 80.7529 49.6836C80.4613 49.6836 80.2038 49.7292 79.9805 49.8203C79.7572 49.9115 79.568 50.0391 79.4131 50.2031C79.2581 50.3672 79.1351 50.5632 79.0439 50.791C78.9574 51.0143 78.9004 51.2604 78.873 51.5293L78.5176 51.7344C78.5176 51.2878 78.5609 50.8685 78.6475 50.4766C78.7386 50.0846 78.8776 49.7383 79.0645 49.4375C79.2513 49.1322 79.4883 48.8952 79.7754 48.7266C80.0671 48.5534 80.4134 48.4668 80.8145 48.4668C80.9056 48.4668 81.0104 48.4782 81.1289 48.501C81.2474 48.5192 81.3294 48.5397 81.375 48.5625ZM85.4766 56.1367C84.9616 56.1367 84.4945 56.0501 84.0752 55.877C83.6605 55.6992 83.3027 55.4508 83.002 55.1318C82.7057 54.8128 82.4779 54.4346 82.3184 53.9971C82.1589 53.5596 82.0791 53.0811 82.0791 52.5615V52.2744C82.0791 51.6729 82.168 51.1374 82.3457 50.668C82.5234 50.194 82.765 49.793 83.0703 49.4648C83.3757 49.1367 83.722 48.8883 84.1094 48.7197C84.4967 48.5511 84.8978 48.4668 85.3125 48.4668C85.8411 48.4668 86.2969 48.5579 86.6797 48.7402C87.0671 48.9225 87.3838 49.1777 87.6299 49.5059C87.876 49.8294 88.0583 50.2122 88.1768 50.6543C88.2952 51.0918 88.3545 51.5703 88.3545 52.0898V52.6572H82.8311V51.625H87.0898V51.5293C87.0716 51.2012 87.0033 50.8822 86.8848 50.5723C86.7708 50.2624 86.5885 50.0072 86.3379 49.8066C86.0872 49.6061 85.7454 49.5059 85.3125 49.5059C85.0254 49.5059 84.7611 49.5674 84.5195 49.6904C84.278 49.8089 84.0706 49.9867 83.8975 50.2236C83.7243 50.4606 83.5898 50.75 83.4941 51.0918C83.3984 51.4336 83.3506 51.8278 83.3506 52.2744V52.5615C83.3506 52.9124 83.3984 53.2428 83.4941 53.5527C83.5944 53.8581 83.738 54.127 83.9248 54.3594C84.1162 54.5918 84.3464 54.7741 84.6152 54.9062C84.8887 55.0384 85.1986 55.1045 85.5449 55.1045C85.9915 55.1045 86.3698 55.0133 86.6797 54.8311C86.9896 54.6488 87.2607 54.4049 87.4932 54.0996L88.2588 54.708C88.0993 54.9495 87.8965 55.1797 87.6504 55.3984C87.4043 55.6172 87.1012 55.7949 86.7412 55.9316C86.3857 56.0684 85.9642 56.1367 85.4766 56.1367ZM99.5039 52.835H100.816C100.748 53.4639 100.568 54.0267 100.276 54.5234C99.9847 55.0202 99.5723 55.4144 99.0391 55.7061C98.5059 55.9932 97.8405 56.1367 97.043 56.1367C96.4596 56.1367 95.9287 56.0273 95.4502 55.8086C94.9762 55.5898 94.5684 55.2799 94.2266 54.8789C93.8848 54.4733 93.6204 53.988 93.4336 53.4229C93.2513 52.8532 93.1602 52.2197 93.1602 51.5225V50.5312C93.1602 49.834 93.2513 49.2028 93.4336 48.6377C93.6204 48.068 93.887 47.5804 94.2334 47.1748C94.5843 46.7692 95.0059 46.457 95.498 46.2383C95.9902 46.0195 96.5439 45.9102 97.1592 45.9102C97.9111 45.9102 98.5469 46.0514 99.0664 46.334C99.5859 46.6165 99.9893 47.0085 100.276 47.5098C100.568 48.0065 100.748 48.583 100.816 49.2393H99.5039C99.4401 48.7744 99.3216 48.3757 99.1484 48.043C98.9753 47.7057 98.7292 47.446 98.4102 47.2637C98.0911 47.0814 97.6742 46.9902 97.1592 46.9902C96.7171 46.9902 96.3275 47.0745 95.9902 47.2432C95.6576 47.4118 95.3773 47.651 95.1494 47.9609C94.9261 48.2708 94.7575 48.6423 94.6436 49.0752C94.5296 49.5081 94.4727 49.9889 94.4727 50.5176V51.5225C94.4727 52.0101 94.5228 52.4681 94.623 52.8965C94.7279 53.3249 94.8851 53.7008 95.0947 54.0244C95.3044 54.348 95.571 54.6032 95.8945 54.79C96.2181 54.9723 96.6009 55.0635 97.043 55.0635C97.6035 55.0635 98.0501 54.9746 98.3828 54.7969C98.7155 54.6191 98.9661 54.3639 99.1348 54.0312C99.3079 53.6986 99.431 53.2998 99.5039 52.835ZM103.688 45.5V56H102.423V45.5H103.688ZM103.387 52.0215L102.86 52.001C102.865 51.4951 102.94 51.028 103.086 50.5996C103.232 50.1667 103.437 49.7907 103.701 49.4717C103.965 49.1527 104.28 48.9066 104.645 48.7334C105.014 48.5557 105.422 48.4668 105.868 48.4668C106.233 48.4668 106.561 48.5169 106.853 48.6172C107.144 48.7129 107.393 48.8678 107.598 49.082C107.807 49.2962 107.967 49.5742 108.076 49.916C108.186 50.2533 108.24 50.6657 108.24 51.1533V56H106.969V51.1396C106.969 50.7523 106.912 50.4424 106.798 50.21C106.684 49.973 106.518 49.8021 106.299 49.6973C106.08 49.5879 105.811 49.5332 105.492 49.5332C105.178 49.5332 104.891 49.5993 104.631 49.7314C104.376 49.8636 104.155 50.0459 103.968 50.2783C103.785 50.5107 103.642 50.7773 103.537 51.0781C103.437 51.3743 103.387 51.6888 103.387 52.0215ZM113.203 56.1367C112.688 56.1367 112.221 56.0501 111.802 55.877C111.387 55.6992 111.029 55.4508 110.729 55.1318C110.432 54.8128 110.204 54.4346 110.045 53.9971C109.885 53.5596 109.806 53.0811 109.806 52.5615V52.2744C109.806 51.6729 109.895 51.1374 110.072 50.668C110.25 50.194 110.492 49.793 110.797 49.4648C111.102 49.1367 111.449 48.8883 111.836 48.7197C112.223 48.5511 112.624 48.4668 113.039 48.4668C113.568 48.4668 114.023 48.5579 114.406 48.7402C114.794 48.9225 115.11 49.1777 115.356 49.5059C115.603 49.8294 115.785 50.2122 115.903 50.6543C116.022 51.0918 116.081 51.5703 116.081 52.0898V52.6572H110.558V51.625H114.816V51.5293C114.798 51.2012 114.73 50.8822 114.611 50.5723C114.497 50.2624 114.315 50.0072 114.064 49.8066C113.814 49.6061 113.472 49.5059 113.039 49.5059C112.752 49.5059 112.488 49.5674 112.246 49.6904C112.005 49.8089 111.797 49.9867 111.624 50.2236C111.451 50.4606 111.316 50.75 111.221 51.0918C111.125 51.4336 111.077 51.8278 111.077 52.2744V52.5615C111.077 52.9124 111.125 53.2428 111.221 53.5527C111.321 53.8581 111.465 54.127 111.651 54.3594C111.843 54.5918 112.073 54.7741 112.342 54.9062C112.615 55.0384 112.925 55.1045 113.271 55.1045C113.718 55.1045 114.096 55.0133 114.406 54.8311C114.716 54.6488 114.987 54.4049 115.22 54.0996L115.985 54.708C115.826 54.9495 115.623 55.1797 115.377 55.3984C115.131 55.6172 114.828 55.7949 114.468 55.9316C114.112 56.0684 113.691 56.1367 113.203 56.1367ZM120.518 55.0977C120.818 55.0977 121.096 55.0361 121.352 54.9131C121.607 54.79 121.816 54.6214 121.98 54.4072C122.145 54.1885 122.238 53.9401 122.261 53.6621H123.464C123.441 54.0996 123.293 54.5075 123.02 54.8857C122.751 55.2594 122.397 55.5625 121.96 55.7949C121.522 56.0228 121.042 56.1367 120.518 56.1367C119.962 56.1367 119.476 56.0387 119.062 55.8428C118.651 55.6468 118.31 55.3779 118.036 55.0361C117.767 54.6943 117.564 54.3024 117.428 53.8604C117.296 53.4137 117.229 52.9421 117.229 52.4453V52.1582C117.229 51.6615 117.296 51.1921 117.428 50.75C117.564 50.3034 117.767 49.9092 118.036 49.5674C118.31 49.2256 118.651 48.9567 119.062 48.7607C119.476 48.5648 119.962 48.4668 120.518 48.4668C121.096 48.4668 121.602 48.5853 122.035 48.8223C122.468 49.0547 122.808 49.3737 123.054 49.7793C123.304 50.1803 123.441 50.6361 123.464 51.1465H122.261C122.238 50.8411 122.151 50.5654 122.001 50.3193C121.855 50.0732 121.655 49.8773 121.399 49.7314C121.149 49.5811 120.855 49.5059 120.518 49.5059C120.13 49.5059 119.804 49.5833 119.54 49.7383C119.28 49.8887 119.073 50.0938 118.918 50.3535C118.768 50.6087 118.658 50.8936 118.59 51.208C118.526 51.5179 118.494 51.8346 118.494 52.1582V52.4453C118.494 52.7689 118.526 53.0879 118.59 53.4023C118.654 53.7168 118.761 54.0016 118.911 54.2568C119.066 54.512 119.273 54.7171 119.533 54.8721C119.798 55.0225 120.126 55.0977 120.518 55.0977ZM126.157 45.5V56H124.886V45.5H126.157ZM130.676 48.6035L127.449 52.0557L125.645 53.9287L125.542 52.582L126.834 51.0371L129.131 48.6035H130.676ZM129.521 56L126.882 52.4727L127.538 51.3447L131.011 56H129.521Z" fill="#4F4F4F"/>
<path d="M16.667 43.5H3.33366C2.41318 43.5 1.66699 44.2462 1.66699 45.1667V53.5C1.66699 54.4205 2.41318 55.1667 3.33366 55.1667H16.667C17.5875 55.1667 18.3337 54.4205 18.3337 53.5V45.1667C18.3337 44.2462 17.5875 43.5 16.667 43.5Z" stroke="#4F4F4F" stroke-width="0.6" stroke-linecap="round" stroke-linejoin="round"/>
<path d="M6.66699 58.5H13.3337" stroke="#4F4F4F" stroke-width="0.6" stroke-linecap="round" stroke-linejoin="round"/>
<path d="M10 55.167V58.5003" stroke="#4F4F4F" stroke-width="0.6" stroke-linecap="round" stroke-linejoin="round"/>
<path d="M263.652 10.3447H261.13L261.116 9.28516H263.406C263.785 9.28516 264.115 9.22135 264.397 9.09375C264.68 8.96615 264.899 8.78385 265.054 8.54688C265.213 8.30534 265.293 8.01823 265.293 7.68555C265.293 7.32096 265.222 7.02474 265.081 6.79688C264.944 6.56445 264.732 6.39583 264.445 6.29102C264.163 6.18164 263.803 6.12695 263.365 6.12695H261.424V15H260.104V5.04688H263.365C263.876 5.04688 264.331 5.09928 264.732 5.2041C265.133 5.30436 265.473 5.46387 265.751 5.68262C266.034 5.89681 266.248 6.17025 266.394 6.50293C266.539 6.83561 266.612 7.23438 266.612 7.69922C266.612 8.10938 266.507 8.48079 266.298 8.81348C266.088 9.1416 265.797 9.41048 265.423 9.62012C265.054 9.82975 264.621 9.96419 264.124 10.0234L263.652 10.3447ZM263.591 15H260.61L261.355 13.9268H263.591C264.01 13.9268 264.366 13.8538 264.657 13.708C264.953 13.5622 265.179 13.3571 265.334 13.0928C265.489 12.8239 265.566 12.5072 265.566 12.1426C265.566 11.7734 265.5 11.4544 265.368 11.1855C265.236 10.9167 265.029 10.7093 264.746 10.5635C264.464 10.4176 264.099 10.3447 263.652 10.3447H261.772L261.786 9.28516H264.356L264.637 9.66797C265.115 9.70898 265.521 9.8457 265.854 10.0781C266.186 10.306 266.439 10.5977 266.612 10.9531C266.79 11.3086 266.879 11.7005 266.879 12.1289C266.879 12.7487 266.742 13.2728 266.469 13.7012C266.2 14.125 265.819 14.4486 265.327 14.6719C264.835 14.8906 264.256 15 263.591 15ZM269.9 8.76562V15H268.636V7.60352H269.866L269.9 8.76562ZM272.211 7.5625L272.204 8.73828C272.099 8.71549 271.999 8.70182 271.903 8.69727C271.812 8.68815 271.707 8.68359 271.589 8.68359C271.297 8.68359 271.04 8.72917 270.816 8.82031C270.593 8.91146 270.404 9.03906 270.249 9.20312C270.094 9.36719 269.971 9.56315 269.88 9.79102C269.793 10.0143 269.736 10.2604 269.709 10.5293L269.354 10.7344C269.354 10.2878 269.397 9.86849 269.483 9.47656C269.575 9.08464 269.714 8.73828 269.9 8.4375C270.087 8.13216 270.324 7.89518 270.611 7.72656C270.903 7.55339 271.249 7.4668 271.65 7.4668C271.742 7.4668 271.846 7.47819 271.965 7.50098C272.083 7.51921 272.165 7.53971 272.211 7.5625ZM272.908 11.3838V11.2266C272.908 10.6934 272.986 10.1989 273.141 9.74316C273.296 9.28288 273.519 8.88411 273.811 8.54688C274.102 8.20508 274.455 7.94076 274.87 7.75391C275.285 7.5625 275.75 7.4668 276.265 7.4668C276.784 7.4668 277.251 7.5625 277.666 7.75391C278.085 7.94076 278.441 8.20508 278.732 8.54688C279.029 8.88411 279.254 9.28288 279.409 9.74316C279.564 10.1989 279.642 10.6934 279.642 11.2266V11.3838C279.642 11.917 279.564 12.4115 279.409 12.8672C279.254 13.3229 279.029 13.7217 278.732 14.0635C278.441 14.4007 278.088 14.665 277.673 14.8564C277.263 15.0433 276.798 15.1367 276.278 15.1367C275.759 15.1367 275.292 15.0433 274.877 14.8564C274.462 14.665 274.107 14.4007 273.811 14.0635C273.519 13.7217 273.296 13.3229 273.141 12.8672C272.986 12.4115 272.908 11.917 272.908 11.3838ZM274.173 11.2266V11.3838C274.173 11.7529 274.216 12.1016 274.303 12.4297C274.389 12.7533 274.519 13.0404 274.692 13.291C274.87 13.5417 275.091 13.7399 275.355 13.8857C275.62 14.027 275.927 14.0977 276.278 14.0977C276.625 14.0977 276.928 14.027 277.188 13.8857C277.452 13.7399 277.671 13.5417 277.844 13.291C278.017 13.0404 278.147 12.7533 278.233 12.4297C278.325 12.1016 278.37 11.7529 278.37 11.3838V11.2266C278.37 10.862 278.325 10.5179 278.233 10.1943C278.147 9.86621 278.015 9.57682 277.837 9.32617C277.664 9.07096 277.445 8.87044 277.181 8.72461C276.921 8.57878 276.616 8.50586 276.265 8.50586C275.918 8.50586 275.613 8.57878 275.349 8.72461C275.089 8.87044 274.87 9.07096 274.692 9.32617C274.519 9.57682 274.389 9.86621 274.303 10.1943C274.216 10.5179 274.173 10.862 274.173 11.2266ZM283.101 13.6875L285.001 7.60352H285.835L285.671 8.81348L283.736 15H282.923L283.101 13.6875ZM281.822 7.60352L283.442 13.7559L283.559 15H282.704L280.558 7.60352H281.822ZM287.653 13.708L289.198 7.60352H290.456L288.31 15H287.462L287.653 13.708ZM286.02 7.60352L287.879 13.585L288.091 15H287.284L285.295 8.7998L285.131 7.60352H286.02ZM296.062 13.0381C296.062 12.8558 296.021 12.6872 295.938 12.5322C295.861 12.3727 295.699 12.2292 295.453 12.1016C295.212 11.9694 294.847 11.8555 294.359 11.7598C293.949 11.6732 293.578 11.5706 293.245 11.4521C292.917 11.3337 292.637 11.1901 292.404 11.0215C292.176 10.8529 292.001 10.6546 291.878 10.4268C291.755 10.1989 291.693 9.93229 291.693 9.62695C291.693 9.33529 291.757 9.05957 291.885 8.7998C292.017 8.54004 292.201 8.3099 292.438 8.10938C292.68 7.90885 292.969 7.75163 293.307 7.6377C293.644 7.52376 294.02 7.4668 294.435 7.4668C295.027 7.4668 295.533 7.57161 295.952 7.78125C296.371 7.99089 296.693 8.27116 296.916 8.62207C297.139 8.96842 297.251 9.35352 297.251 9.77734H295.986C295.986 9.57227 295.925 9.37402 295.802 9.18262C295.683 8.98665 295.508 8.82487 295.275 8.69727C295.048 8.56966 294.767 8.50586 294.435 8.50586C294.084 8.50586 293.799 8.56055 293.58 8.66992C293.366 8.77474 293.209 8.90918 293.108 9.07324C293.013 9.2373 292.965 9.41048 292.965 9.59277C292.965 9.72949 292.988 9.85254 293.033 9.96191C293.083 10.0667 293.17 10.1647 293.293 10.2559C293.416 10.3424 293.589 10.4245 293.812 10.502C294.036 10.5794 294.321 10.6569 294.667 10.7344C295.273 10.8711 295.772 11.0352 296.164 11.2266C296.556 11.418 296.848 11.6527 297.039 11.9307C297.23 12.2087 297.326 12.5459 297.326 12.9424C297.326 13.266 297.258 13.5622 297.121 13.8311C296.989 14.0999 296.795 14.3324 296.54 14.5283C296.289 14.7197 295.989 14.8701 295.638 14.9795C295.291 15.0843 294.902 15.1367 294.469 15.1367C293.817 15.1367 293.266 15.0205 292.814 14.7881C292.363 14.5557 292.021 14.2549 291.789 13.8857C291.557 13.5166 291.44 13.127 291.44 12.7168H292.712C292.73 13.0632 292.83 13.3389 293.013 13.5439C293.195 13.7445 293.418 13.888 293.683 13.9746C293.947 14.0566 294.209 14.0977 294.469 14.0977C294.815 14.0977 295.104 14.0521 295.337 13.9609C295.574 13.8698 295.754 13.7445 295.877 13.585C296 13.4255 296.062 13.2432 296.062 13.0381ZM302.057 15.1367C301.542 15.1367 301.075 15.0501 300.655 14.877C300.241 14.6992 299.883 14.4508 299.582 14.1318C299.286 13.8128 299.058 13.4346 298.898 12.9971C298.739 12.5596 298.659 12.0811 298.659 11.5615V11.2744C298.659 10.6729 298.748 10.1374 298.926 9.66797C299.104 9.19401 299.345 8.79297 299.65 8.46484C299.956 8.13672 300.302 7.88835 300.689 7.71973C301.077 7.55111 301.478 7.4668 301.893 7.4668C302.421 7.4668 302.877 7.55794 303.26 7.74023C303.647 7.92253 303.964 8.17773 304.21 8.50586C304.456 8.82943 304.638 9.21224 304.757 9.6543C304.875 10.0918 304.935 10.5703 304.935 11.0898V11.6572H299.411V10.625H303.67V10.5293C303.652 10.2012 303.583 9.88216 303.465 9.57227C303.351 9.26237 303.169 9.00716 302.918 8.80664C302.667 8.60612 302.326 8.50586 301.893 8.50586C301.605 8.50586 301.341 8.56738 301.1 8.69043C300.858 8.80892 300.651 8.98665 300.478 9.22363C300.304 9.46061 300.17 9.75 300.074 10.0918C299.979 10.4336 299.931 10.8278 299.931 11.2744V11.5615C299.931 11.9124 299.979 12.2428 300.074 12.5527C300.174 12.8581 300.318 13.127 300.505 13.3594C300.696 13.5918 300.926 13.7741 301.195 13.9062C301.469 14.0384 301.779 14.1045 302.125 14.1045C302.572 14.1045 302.95 14.0133 303.26 13.8311C303.57 13.6488 303.841 13.4049 304.073 13.0996L304.839 13.708C304.679 13.9495 304.477 14.1797 304.23 14.3984C303.984 14.6172 303.681 14.7949 303.321 14.9316C302.966 15.0684 302.544 15.1367 302.057 15.1367ZM307.676 8.76562V15H306.411V7.60352H307.642L307.676 8.76562ZM309.986 7.5625L309.979 8.73828C309.875 8.71549 309.774 8.70182 309.679 8.69727C309.588 8.68815 309.483 8.68359 309.364 8.68359C309.073 8.68359 308.815 8.72917 308.592 8.82031C308.368 8.91146 308.179 9.03906 308.024 9.20312C307.869 9.36719 307.746 9.56315 307.655 9.79102C307.569 10.0143 307.512 10.2604 307.484 10.5293L307.129 10.7344C307.129 10.2878 307.172 9.86849 307.259 9.47656C307.35 9.08464 307.489 8.73828 307.676 8.4375C307.863 8.13216 308.1 7.89518 308.387 7.72656C308.678 7.55339 309.025 7.4668 309.426 7.4668C309.517 7.4668 309.622 7.47819 309.74 7.50098C309.859 7.51921 309.941 7.53971 309.986 7.5625ZM320.828 11.835H322.141C322.072 12.4639 321.892 13.0267 321.601 13.5234C321.309 14.0202 320.896 14.4144 320.363 14.7061C319.83 14.9932 319.165 15.1367 318.367 15.1367C317.784 15.1367 317.253 15.0273 316.774 14.8086C316.3 14.5898 315.893 14.2799 315.551 13.8789C315.209 13.4733 314.945 12.988 314.758 12.4229C314.576 11.8532 314.484 11.2197 314.484 10.5225V9.53125C314.484 8.83398 314.576 8.2028 314.758 7.6377C314.945 7.06803 315.211 6.5804 315.558 6.1748C315.909 5.76921 316.33 5.45703 316.822 5.23828C317.314 5.01953 317.868 4.91016 318.483 4.91016C319.235 4.91016 319.871 5.05143 320.391 5.33398C320.91 5.61654 321.313 6.00846 321.601 6.50977C321.892 7.00651 322.072 7.58301 322.141 8.23926H320.828C320.764 7.77441 320.646 7.37565 320.473 7.04297C320.299 6.70573 320.053 6.44596 319.734 6.26367C319.415 6.08138 318.998 5.99023 318.483 5.99023C318.041 5.99023 317.652 6.07454 317.314 6.24316C316.982 6.41178 316.701 6.65104 316.474 6.96094C316.25 7.27083 316.082 7.64225 315.968 8.0752C315.854 8.50814 315.797 8.98893 315.797 9.51758V10.5225C315.797 11.0101 315.847 11.4681 315.947 11.8965C316.052 12.3249 316.209 12.7008 316.419 13.0244C316.629 13.348 316.895 13.6032 317.219 13.79C317.542 13.9723 317.925 14.0635 318.367 14.0635C318.928 14.0635 319.374 13.9746 319.707 13.7969C320.04 13.6191 320.29 13.3639 320.459 13.0312C320.632 12.6986 320.755 12.2998 320.828 11.835ZM325.012 4.5V15H323.747V4.5H325.012ZM324.711 11.0215L324.185 11.001C324.189 10.4951 324.264 10.028 324.41 9.59961C324.556 9.16667 324.761 8.79069 325.025 8.47168C325.29 8.15267 325.604 7.90658 325.969 7.7334C326.338 7.55566 326.746 7.4668 327.192 7.4668C327.557 7.4668 327.885 7.51693 328.177 7.61719C328.468 7.71289 328.717 7.86784 328.922 8.08203C329.132 8.29622 329.291 8.57422 329.4 8.91602C329.51 9.25326 329.564 9.66569 329.564 10.1533V15H328.293V10.1396C328.293 9.75228 328.236 9.44238 328.122 9.20996C328.008 8.97298 327.842 8.80208 327.623 8.69727C327.404 8.58789 327.135 8.5332 326.816 8.5332C326.502 8.5332 326.215 8.59928 325.955 8.73145C325.7 8.86361 325.479 9.0459 325.292 9.27832C325.11 9.51074 324.966 9.77734 324.861 10.0781C324.761 10.3743 324.711 10.6888 324.711 11.0215ZM334.527 15.1367C334.012 15.1367 333.545 15.0501 333.126 14.877C332.711 14.6992 332.354 14.4508 332.053 14.1318C331.757 13.8128 331.529 13.4346 331.369 12.9971C331.21 12.5596 331.13 12.0811 331.13 11.5615V11.2744C331.13 10.6729 331.219 10.1374 331.396 9.66797C331.574 9.19401 331.816 8.79297 332.121 8.46484C332.426 8.13672 332.773 7.88835 333.16 7.71973C333.548 7.55111 333.949 7.4668 334.363 7.4668C334.892 7.4668 335.348 7.55794 335.73 7.74023C336.118 7.92253 336.435 8.17773 336.681 8.50586C336.927 8.82943 337.109 9.21224 337.228 9.6543C337.346 10.0918 337.405 10.5703 337.405 11.0898V11.6572H331.882V10.625H336.141V10.5293C336.122 10.2012 336.054 9.88216 335.936 9.57227C335.822 9.26237 335.639 9.00716 335.389 8.80664C335.138 8.60612 334.796 8.50586 334.363 8.50586C334.076 8.50586 333.812 8.56738 333.57 8.69043C333.329 8.80892 333.121 8.98665 332.948 9.22363C332.775 9.46061 332.641 9.75 332.545 10.0918C332.449 10.4336 332.401 10.8278 332.401 11.2744V11.5615C332.401 11.9124 332.449 12.2428 332.545 12.5527C332.645 12.8581 332.789 13.127 332.976 13.3594C333.167 13.5918 333.397 13.7741 333.666 13.9062C333.939 14.0384 334.249 14.1045 334.596 14.1045C335.042 14.1045 335.421 14.0133 335.73 13.8311C336.04 13.6488 336.312 13.4049 336.544 13.0996L337.31 13.708C337.15 13.9495 336.947 14.1797 336.701 14.3984C336.455 14.6172 336.152 14.7949 335.792 14.9316C335.437 15.0684 335.015 15.1367 334.527 15.1367ZM341.842 14.0977C342.143 14.0977 342.421 14.0361 342.676 13.9131C342.931 13.79 343.141 13.6214 343.305 13.4072C343.469 13.1885 343.562 12.9401 343.585 12.6621H344.788C344.765 13.0996 344.617 13.5075 344.344 13.8857C344.075 14.2594 343.722 14.5625 343.284 14.7949C342.847 15.0228 342.366 15.1367 341.842 15.1367C341.286 15.1367 340.8 15.0387 340.386 14.8428C339.976 14.6468 339.634 14.3779 339.36 14.0361C339.091 13.6943 338.889 13.3024 338.752 12.8604C338.62 12.4137 338.554 11.9421 338.554 11.4453V11.1582C338.554 10.6615 338.62 10.1921 338.752 9.75C338.889 9.30339 339.091 8.90918 339.36 8.56738C339.634 8.22559 339.976 7.95671 340.386 7.76074C340.8 7.56478 341.286 7.4668 341.842 7.4668C342.421 7.4668 342.926 7.58529 343.359 7.82227C343.792 8.05469 344.132 8.3737 344.378 8.7793C344.629 9.18034 344.765 9.63607 344.788 10.1465H343.585C343.562 9.84115 343.476 9.56543 343.325 9.31934C343.179 9.07324 342.979 8.87728 342.724 8.73145C342.473 8.58105 342.179 8.50586 341.842 8.50586C341.454 8.50586 341.129 8.58333 340.864 8.73828C340.604 8.88867 340.397 9.09375 340.242 9.35352C340.092 9.60872 339.982 9.89355 339.914 10.208C339.85 10.5179 339.818 10.8346 339.818 11.1582V11.4453C339.818 11.7689 339.85 12.0879 339.914 12.4023C339.978 12.7168 340.085 13.0016 340.235 13.2568C340.39 13.512 340.598 13.7171 340.857 13.8721C341.122 14.0225 341.45 14.0977 341.842 14.0977ZM347.481 4.5V15H346.21V4.5H347.481ZM352 7.60352L348.773 11.0557L346.969 12.9287L346.866 11.582L348.158 10.0371L350.455 7.60352H352ZM350.845 15L348.206 11.4727L348.862 10.3447L352.335 15H350.845Z" fill="#4F4F4F"/>
<path d="M243.916 6.66699V17.5003H228.083V6.66699" stroke="#4F4F4F" stroke-opacity="0.85" stroke-width="0.7" stroke-linecap="round" stroke-linejoin="round"/>
<path d="M228.083 1.66699H243.916V6.66699H228.083V1.66699Z" stroke="#4F4F4F" stroke-opacity="0.85" stroke-width="0.7" stroke-linejoin="round"/>
<path fill-rule="evenodd" clip-rule="evenodd" d="M230.583 4.99967C231.044 4.99967 231.417 4.62659 231.417 4.16634C231.417 3.7061 231.044 3.33301 230.583 3.33301C230.123 3.33301 229.75 3.7061 229.75 4.16634C229.75 4.62659 230.123 4.99967 230.583 4.99967Z" fill="#4F4F4F" fill-opacity="0.85"/>
<path fill-rule="evenodd" clip-rule="evenodd" d="M233.083 4.99967C233.544 4.99967 233.917 4.62659 233.917 4.16634C233.917 3.7061 233.544 3.33301 233.083 3.33301C232.623 3.33301 232.25 3.7061 232.25 4.16634C232.25 4.62659 232.623 4.99967 233.083 4.99967Z" fill="#4F4F4F" fill-opacity="0.85"/>
<path fill-rule="evenodd" clip-rule="evenodd" d="M235.583 4.99967C236.044 4.99967 236.417 4.62659 236.417 4.16634C236.417 3.7061 236.044 3.33301 235.583 3.33301C235.123 3.33301 234.75 3.7061 234.75 4.16634C234.75 4.62659 235.123 4.99967 235.583 4.99967Z" fill="#4F4F4F" fill-opacity="0.85"/>
<path d="M267.761 46.0469V56H266.435L261.424 48.3232V56H260.104V46.0469H261.424L266.455 53.7441V46.0469H267.761ZM272.977 56.1367C272.462 56.1367 271.994 56.0501 271.575 55.877C271.16 55.6992 270.803 55.4508 270.502 55.1318C270.206 54.8128 269.978 54.4346 269.818 53.9971C269.659 53.5596 269.579 53.0811 269.579 52.5615V52.2744C269.579 51.6729 269.668 51.1374 269.846 50.668C270.023 50.194 270.265 49.793 270.57 49.4648C270.876 49.1367 271.222 48.8883 271.609 48.7197C271.997 48.5511 272.398 48.4668 272.812 48.4668C273.341 48.4668 273.797 48.5579 274.18 48.7402C274.567 48.9225 274.884 49.1777 275.13 49.5059C275.376 49.8294 275.558 50.2122 275.677 50.6543C275.795 51.0918 275.854 51.5703 275.854 52.0898V52.6572H270.331V51.625H274.59V51.5293C274.572 51.2012 274.503 50.8822 274.385 50.5723C274.271 50.2624 274.089 50.0072 273.838 49.8066C273.587 49.6061 273.245 49.5059 272.812 49.5059C272.525 49.5059 272.261 49.5674 272.02 49.6904C271.778 49.8089 271.571 49.9867 271.397 50.2236C271.224 50.4606 271.09 50.75 270.994 51.0918C270.898 51.4336 270.851 51.8278 270.851 52.2744V52.5615C270.851 52.9124 270.898 53.2428 270.994 53.5527C271.094 53.8581 271.238 54.127 271.425 54.3594C271.616 54.5918 271.846 54.7741 272.115 54.9062C272.389 55.0384 272.699 55.1045 273.045 55.1045C273.492 55.1045 273.87 55.0133 274.18 54.8311C274.49 54.6488 274.761 54.4049 274.993 54.0996L275.759 54.708C275.599 54.9495 275.396 55.1797 275.15 55.3984C274.904 55.6172 274.601 55.7949 274.241 55.9316C273.886 56.0684 273.464 56.1367 272.977 56.1367ZM280.428 48.6035V49.5742H276.429V48.6035H280.428ZM277.782 46.8057H279.047V54.168C279.047 54.4186 279.086 54.6077 279.163 54.7354C279.241 54.863 279.341 54.9473 279.464 54.9883C279.587 55.0293 279.719 55.0498 279.86 55.0498C279.965 55.0498 280.075 55.0407 280.188 55.0225C280.307 54.9997 280.396 54.9814 280.455 54.9678L280.462 56C280.362 56.0319 280.229 56.0615 280.065 56.0889C279.906 56.1208 279.712 56.1367 279.484 56.1367C279.174 56.1367 278.89 56.0752 278.63 55.9521C278.37 55.8291 278.163 55.624 278.008 55.3369C277.857 55.0452 277.782 54.6533 277.782 54.1611V46.8057ZM283.784 54.6875L285.685 48.6035H286.519L286.354 49.8135L284.42 56H283.606L283.784 54.6875ZM282.506 48.6035L284.126 54.7559L284.242 56H283.388L281.241 48.6035H282.506ZM288.337 54.708L289.882 48.6035H291.14L288.993 56H288.146L288.337 54.708ZM286.703 48.6035L288.562 54.585L288.774 56H287.968L285.979 49.7998L285.814 48.6035H286.703ZM292.104 52.3838V52.2266C292.104 51.6934 292.181 51.1989 292.336 50.7432C292.491 50.2829 292.714 49.8841 293.006 49.5469C293.298 49.2051 293.651 48.9408 294.065 48.7539C294.48 48.5625 294.945 48.4668 295.46 48.4668C295.979 48.4668 296.447 48.5625 296.861 48.7539C297.281 48.9408 297.636 49.2051 297.928 49.5469C298.224 49.8841 298.45 50.2829 298.604 50.7432C298.759 51.1989 298.837 51.6934 298.837 52.2266V52.3838C298.837 52.917 298.759 53.4115 298.604 53.8672C298.45 54.3229 298.224 54.7217 297.928 55.0635C297.636 55.4007 297.283 55.665 296.868 55.8564C296.458 56.0433 295.993 56.1367 295.474 56.1367C294.954 56.1367 294.487 56.0433 294.072 55.8564C293.658 55.665 293.302 55.4007 293.006 55.0635C292.714 54.7217 292.491 54.3229 292.336 53.8672C292.181 53.4115 292.104 52.917 292.104 52.3838ZM293.368 52.2266V52.3838C293.368 52.7529 293.411 53.1016 293.498 53.4297C293.585 53.7533 293.715 54.0404 293.888 54.291C294.065 54.5417 294.286 54.7399 294.551 54.8857C294.815 55.027 295.123 55.0977 295.474 55.0977C295.82 55.0977 296.123 55.027 296.383 54.8857C296.647 54.7399 296.866 54.5417 297.039 54.291C297.212 54.0404 297.342 53.7533 297.429 53.4297C297.52 53.1016 297.565 52.7529 297.565 52.3838V52.2266C297.565 51.862 297.52 51.5179 297.429 51.1943C297.342 50.8662 297.21 50.5768 297.032 50.3262C296.859 50.071 296.64 49.8704 296.376 49.7246C296.116 49.5788 295.811 49.5059 295.46 49.5059C295.114 49.5059 294.808 49.5788 294.544 49.7246C294.284 49.8704 294.065 50.071 293.888 50.3262C293.715 50.5768 293.585 50.8662 293.498 51.1943C293.411 51.5179 293.368 51.862 293.368 52.2266ZM301.688 49.7656V56H300.423V48.6035H301.653L301.688 49.7656ZM303.998 48.5625L303.991 49.7383C303.886 49.7155 303.786 49.7018 303.69 49.6973C303.599 49.6882 303.494 49.6836 303.376 49.6836C303.084 49.6836 302.827 49.7292 302.604 49.8203C302.38 49.9115 302.191 50.0391 302.036 50.2031C301.881 50.3672 301.758 50.5632 301.667 50.791C301.58 51.0143 301.523 51.2604 301.496 51.5293L301.141 51.7344C301.141 51.2878 301.184 50.8685 301.271 50.4766C301.362 50.0846 301.501 49.7383 301.688 49.4375C301.874 49.1322 302.111 48.8952 302.398 48.7266C302.69 48.5534 303.036 48.4668 303.438 48.4668C303.529 48.4668 303.633 48.4782 303.752 48.501C303.87 48.5192 303.952 48.5397 303.998 48.5625ZM306.438 45.5V56H305.167V45.5H306.438ZM310.957 48.6035L307.73 52.0557L305.926 53.9287L305.823 52.582L307.115 51.0371L309.412 48.6035H310.957ZM309.802 56L307.163 52.4727L307.819 51.3447L311.292 56H309.802ZM321.936 52.835H323.248C323.18 53.4639 323 54.0267 322.708 54.5234C322.416 55.0202 322.004 55.4144 321.471 55.7061C320.938 55.9932 320.272 56.1367 319.475 56.1367C318.891 56.1367 318.36 56.0273 317.882 55.8086C317.408 55.5898 317 55.2799 316.658 54.8789C316.316 54.4733 316.052 53.988 315.865 53.4229C315.683 52.8532 315.592 52.2197 315.592 51.5225V50.5312C315.592 49.834 315.683 49.2028 315.865 48.6377C316.052 48.068 316.319 47.5804 316.665 47.1748C317.016 46.7692 317.438 46.457 317.93 46.2383C318.422 46.0195 318.976 45.9102 319.591 45.9102C320.343 45.9102 320.979 46.0514 321.498 46.334C322.018 46.6165 322.421 47.0085 322.708 47.5098C323 48.0065 323.18 48.583 323.248 49.2393H321.936C321.872 48.7744 321.753 48.3757 321.58 48.043C321.407 47.7057 321.161 47.446 320.842 47.2637C320.523 47.0814 320.106 46.9902 319.591 46.9902C319.149 46.9902 318.759 47.0745 318.422 47.2432C318.089 47.4118 317.809 47.651 317.581 47.9609C317.358 48.2708 317.189 48.6423 317.075 49.0752C316.961 49.5081 316.904 49.9889 316.904 50.5176V51.5225C316.904 52.0101 316.954 52.4681 317.055 52.8965C317.16 53.3249 317.317 53.7008 317.526 54.0244C317.736 54.348 318.003 54.6032 318.326 54.79C318.65 54.9723 319.033 55.0635 319.475 55.0635C320.035 55.0635 320.482 54.9746 320.814 54.7969C321.147 54.6191 321.398 54.3639 321.566 54.0312C321.74 53.6986 321.863 53.2998 321.936 52.835ZM326.119 45.5V56H324.854V45.5H326.119ZM325.818 52.0215L325.292 52.001C325.297 51.4951 325.372 51.028 325.518 50.5996C325.663 50.1667 325.868 49.7907 326.133 49.4717C326.397 49.1527 326.712 48.9066 327.076 48.7334C327.445 48.5557 327.853 48.4668 328.3 48.4668C328.664 48.4668 328.993 48.5169 329.284 48.6172C329.576 48.7129 329.824 48.8678 330.029 49.082C330.239 49.2962 330.398 49.5742 330.508 49.916C330.617 50.2533 330.672 50.6657 330.672 51.1533V56H329.4V51.1396C329.4 50.7523 329.343 50.4424 329.229 50.21C329.116 49.973 328.949 49.8021 328.73 49.6973C328.512 49.5879 328.243 49.5332 327.924 49.5332C327.609 49.5332 327.322 49.5993 327.062 49.7314C326.807 49.8636 326.586 50.0459 326.399 50.2783C326.217 50.5107 326.074 50.7773 325.969 51.0781C325.868 51.3743 325.818 51.6888 325.818 52.0215ZM335.635 56.1367C335.12 56.1367 334.653 56.0501 334.233 55.877C333.819 55.6992 333.461 55.4508 333.16 55.1318C332.864 54.8128 332.636 54.4346 332.477 53.9971C332.317 53.5596 332.237 53.0811 332.237 52.5615V52.2744C332.237 51.6729 332.326 51.1374 332.504 50.668C332.682 50.194 332.923 49.793 333.229 49.4648C333.534 49.1367 333.88 48.8883 334.268 48.7197C334.655 48.5511 335.056 48.4668 335.471 48.4668C335.999 48.4668 336.455 48.5579 336.838 48.7402C337.225 48.9225 337.542 49.1777 337.788 49.5059C338.034 49.8294 338.216 50.2122 338.335 50.6543C338.453 51.0918 338.513 51.5703 338.513 52.0898V52.6572H332.989V51.625H337.248V51.5293C337.23 51.2012 337.161 50.8822 337.043 50.5723C336.929 50.2624 336.747 50.0072 336.496 49.8066C336.245 49.6061 335.904 49.5059 335.471 49.5059C335.184 49.5059 334.919 49.5674 334.678 49.6904C334.436 49.8089 334.229 49.9867 334.056 50.2236C333.882 50.4606 333.748 50.75 333.652 51.0918C333.557 51.4336 333.509 51.8278 333.509 52.2744V52.5615C333.509 52.9124 333.557 53.2428 333.652 53.5527C333.753 53.8581 333.896 54.127 334.083 54.3594C334.274 54.5918 334.505 54.7741 334.773 54.9062C335.047 55.0384 335.357 55.1045 335.703 55.1045C336.15 55.1045 336.528 55.0133 336.838 54.8311C337.148 54.6488 337.419 54.4049 337.651 54.0996L338.417 54.708C338.257 54.9495 338.055 55.1797 337.809 55.3984C337.562 55.6172 337.259 55.7949 336.899 55.9316C336.544 56.0684 336.122 56.1367 335.635 56.1367ZM342.949 55.0977C343.25 55.0977 343.528 55.0361 343.783 54.9131C344.038 54.79 344.248 54.6214 344.412 54.4072C344.576 54.1885 344.67 53.9401 344.692 53.6621H345.896C345.873 54.0996 345.725 54.5075 345.451 54.8857C345.182 55.2594 344.829 55.5625 344.392 55.7949C343.954 56.0228 343.473 56.1367 342.949 56.1367C342.393 56.1367 341.908 56.0387 341.493 55.8428C341.083 55.6468 340.741 55.3779 340.468 55.0361C340.199 54.6943 339.996 54.3024 339.859 53.8604C339.727 53.4137 339.661 52.9421 339.661 52.4453V52.1582C339.661 51.6615 339.727 51.1921 339.859 50.75C339.996 50.3034 340.199 49.9092 340.468 49.5674C340.741 49.2256 341.083 48.9567 341.493 48.7607C341.908 48.5648 342.393 48.4668 342.949 48.4668C343.528 48.4668 344.034 48.5853 344.467 48.8223C344.9 49.0547 345.239 49.3737 345.485 49.7793C345.736 50.1803 345.873 50.6361 345.896 51.1465H344.692C344.67 50.8411 344.583 50.5654 344.433 50.3193C344.287 50.0732 344.086 49.8773 343.831 49.7314C343.58 49.5811 343.286 49.5059 342.949 49.5059C342.562 49.5059 342.236 49.5833 341.972 49.7383C341.712 49.8887 341.505 50.0938 341.35 50.3535C341.199 50.6087 341.09 50.8936 341.021 51.208C340.958 51.5179 340.926 51.8346 340.926 52.1582V52.4453C340.926 52.7689 340.958 53.0879 341.021 53.4023C341.085 53.7168 341.192 54.0016 341.343 54.2568C341.498 54.512 341.705 54.7171 341.965 54.8721C342.229 55.0225 342.557 55.0977 342.949 55.0977ZM348.589 45.5V56H347.317V45.5H348.589ZM353.107 48.6035L349.881 52.0557L348.076 53.9287L347.974 52.582L349.266 51.0371L351.562 48.6035H353.107ZM351.952 56L349.313 52.4727L349.97 51.3447L353.442 56H351.952Z" fill="#4F4F4F"/>
<path d="M228.5 51.0035V58.5H243.5V51" stroke="#4F4F4F" stroke-width="0.7" stroke-linecap="round" stroke-linejoin="round"/>
<path d="M239.75 50.583L236 54.333L232.25 50.583" stroke="#4F4F4F" stroke-width="0.7" stroke-linecap="round" stroke-linejoin="round"/>
<path d="M235.996 43.5V54.3333" stroke="#4F4F4F" stroke-width="0.7" stroke-linecap="round" stroke-linejoin="round"/>
</svg>
