<svg width="20" height="20" viewBox="0 0 20 20" fill="none" xmlns="http://www.w3.org/2000/svg">
<path fill-rule="evenodd" clip-rule="evenodd" d="M10.2752 2.19156C10.1575 1.97131 9.84173 1.97131 9.724 2.19157L2.12195 16.4147C2.01069 16.623 2.16153 16.8746 2.39755 16.8746H17.6016C17.8377 16.8746 17.9885 16.623 17.8772 16.4147L10.2752 2.19156ZM8.07039 1.30773C8.89447 -0.234086 11.1048 -0.234088 11.9288 1.30773L19.5309 15.531C20.3097 16.9881 19.2539 18.7496 17.6016 18.7496H2.39755C0.745309 18.7496 -0.3105 16.9881 0.468334 15.531L8.07039 1.30773ZM11.2496 13.7496C11.2496 14.44 10.69 14.9996 9.99962 14.9996C9.30927 14.9996 8.74962 14.44 8.74962 13.7496C8.74962 13.0592 9.30927 12.4996 9.99962 12.4996C10.69 12.4996 11.2496 13.0592 11.2496 13.7496ZM10.9371 7.18708C10.9371 6.66932 10.5174 6.24958 9.99962 6.24958C9.48185 6.24958 9.06212 6.66932 9.06212 7.18708V10.3121C9.06212 10.8298 9.48185 11.2496 9.99962 11.2496C10.5174 11.2496 10.9371 10.8298 10.9371 10.3121V7.18708Z" fill="#D02F44"/>
</svg>
