<svg width="22" height="18" viewBox="0 0 22 18" fill="none" xmlns="http://www.w3.org/2000/svg">
<path d="M9.875 7.125L1.875 1.875V12.375C1.875 12.5583 1.92933 12.7083 2.038 12.825C2.146 12.9417 2.29167 13 2.475 13H12.6V14H2.475C2.025 14 1.646 13.846 1.338 13.538C1.02933 13.2293 0.875 12.8417 0.875 12.375V1.625C0.875 1.15833 1.02933 0.770667 1.338 0.462C1.646 0.154 2.025 0 2.475 0H17.25C17.7167 0 18.1043 0.154 18.413 0.462C18.721 0.770667 18.875 1.15833 18.875 1.625V6.375H17.875V1.875L9.875 7.125ZM9.875 6L17.55 1H2.175L9.875 6ZM17.875 17.95C16.9583 17.95 16.1833 17.6333 15.55 17C14.9167 16.3667 14.6 15.6 14.6 14.7V10.2C14.6 9.66667 14.7793 9.21667 15.138 8.85C15.496 8.48333 15.9417 8.3 16.475 8.3C17.0083 8.3 17.4583 8.48333 17.825 8.85C18.1917 9.21667 18.375 9.66667 18.375 10.2V14.7H17.375V10.2C17.375 9.95 17.2877 9.73733 17.113 9.562C16.9377 9.38733 16.725 9.3 16.475 9.3C16.225 9.3 16.0167 9.38733 15.85 9.562C15.6833 9.73733 15.6 9.95 15.6 10.2V14.7C15.6 15.3167 15.821 15.846 16.263 16.288C16.7043 16.7293 17.2417 16.95 17.875 16.95C18.4917 16.95 19.0207 16.7293 19.462 16.288C19.904 15.846 20.125 15.3167 20.125 14.7V10.7H21.125V14.7C21.125 15.6 20.8083 16.3667 20.175 17C19.5417 17.6333 18.775 17.95 17.875 17.95ZM1.875 1.875V1V13V1.875Z" fill="#4F4F4F"/>
</svg>
