<svg width="20" height="20" viewBox="0 0 20 20" fill="none" xmlns="http://www.w3.org/2000/svg">
<mask id="mask0_970_743" style="mask-type:alpha" maskUnits="userSpaceOnUse" x="0" y="0" width="20" height="20">
<rect width="20" height="20" fill="#4F4F4F"/>
</mask>
<g mask="url(#mask0_970_743)">
<path d="M7.61589 12.3841V7.61589H12.3841V12.3841H7.61589ZM8.80795 11.1921H11.1921V8.80795H8.80795V11.1921ZM7.01987 19V17.1523H4.78477C4.22848 17.1523 3.76676 16.9687 3.3996 16.6016C3.03166 16.2336 2.84768 15.7715 2.84768 15.2152V12.9801H1V11.7881H2.84768V8.21192H1V7.01987H2.84768V4.78477C2.84768 4.22848 3.03166 3.76676 3.3996 3.3996C3.76676 3.03166 4.22848 2.84768 4.78477 2.84768H7.01987V1H8.21192V2.84768H11.7881V1H12.9801V2.84768H15.2152C15.7715 2.84768 16.2336 3.03166 16.6016 3.3996C16.9687 3.76676 17.1523 4.22848 17.1523 4.78477V7.01987H19V8.21192H17.1523V11.7881H19V12.9801H17.1523V15.2152C17.1523 15.7715 16.9687 16.2336 16.6016 16.6016C16.2336 16.9687 15.7715 17.1523 15.2152 17.1523H12.9801V19H11.7881V17.1523H8.21192V19H7.01987ZM15.2152 15.9603C15.4139 15.9603 15.5876 15.8856 15.7362 15.7362C15.8856 15.5876 15.9603 15.4139 15.9603 15.2152V4.78477C15.9603 4.58609 15.8856 4.41245 15.7362 4.26384C15.5876 4.11444 15.4139 4.03974 15.2152 4.03974H4.78477C4.58609 4.03974 4.41245 4.11444 4.26384 4.26384C4.11444 4.41245 4.03974 4.58609 4.03974 4.78477V15.2152C4.03974 15.4139 4.11444 15.5876 4.26384 15.7362C4.41245 15.8856 4.58609 15.9603 4.78477 15.9603H15.2152Z" fill="#4F4F4F"/>
</g>
</svg>
