<svg width="14" height="14" viewBox="0 0 14 14" fill="none" xmlns="http://www.w3.org/2000/svg">
<path d="M8.70866 13.7497V12.458C9.9031 12.083 10.8684 11.3919 11.6045 10.3847C12.3406 9.37801 12.7087 8.24273 12.7087 6.97884C12.7087 5.71495 12.3406 4.5794 11.6045 3.57217C10.8684 2.56551 9.9031 1.87467 8.70866 1.49967V0.208008C10.2503 0.624674 11.5106 1.45801 12.4895 2.70801C13.4689 3.95801 13.9587 5.38162 13.9587 6.97884C13.9587 8.57606 13.4689 9.99967 12.4895 11.2497C11.5106 12.4997 10.2503 13.333 8.70866 13.7497ZM0.0419922 9.08301V4.91634H3.14616L6.70866 1.33301V12.6663L3.14616 9.08301H0.0419922ZM8.70866 10.0413V3.91634C9.26421 4.2219 9.69477 4.65245 10.0003 5.20801C10.3059 5.76356 10.4587 6.36079 10.4587 6.99967C10.4587 7.63856 10.3059 8.22884 10.0003 8.77051C9.69477 9.31217 9.26421 9.73579 8.70866 10.0413ZM5.45866 4.37468L3.66699 6.16634H1.29199V7.83301H3.66699L5.45866 9.62467V4.37468Z" fill="white"/>
</svg>
