<svg width="20" height="20" viewBox="0 0 20 20" fill="none" xmlns="http://www.w3.org/2000/svg">
<path d="M9.86129 1.76855C9.26223 1.76855 8.68771 2.00653 8.26411 2.43013C7.84051 2.85372 7.60254 3.42824 7.60254 4.0273V10.0506C7.60254 10.6497 7.84051 11.2242 8.26411 11.6478C8.68771 12.0714 9.26223 12.3094 9.86129 12.3094C10.4603 12.3094 11.0349 12.0714 11.4585 11.6478C11.8821 11.2242 12.12 10.6497 12.12 10.0506V4.0273C12.12 3.42824 11.8821 2.85372 11.4585 2.43013C11.0349 2.00653 10.4603 1.76855 9.86129 1.76855V1.76855Z" stroke="#4F4F4F" stroke-linecap="round" stroke-linejoin="round"/>
<path d="M15.2205 8.54492V10.0508C15.2205 11.4486 14.6652 12.7891 13.6768 13.7775C12.6884 14.7659 11.3479 15.3212 9.9501 15.3212C8.5523 15.3212 7.21175 14.7659 6.22335 13.7775C5.23496 12.7891 4.67969 11.4486 4.67969 10.0508V8.54492" stroke="#4F4F4F" stroke-linecap="round" stroke-linejoin="round"/>
<path d="M9.99414 15.3213V18.3329" stroke="#4F4F4F" stroke-linecap="round" stroke-linejoin="round"/>
<path d="M6.98242 18.334H13.0057" stroke="#4F4F4F" stroke-linecap="round" stroke-linejoin="round"/>
</svg>
