<svg width="20" height="20" viewBox="0 0 20 20" fill="none" xmlns="http://www.w3.org/2000/svg">
<path d="M16.666 2.5H3.33268C2.41221 2.5 1.66602 3.24619 1.66602 4.16667V12.5C1.66602 13.4205 2.41221 14.1667 3.33268 14.1667H16.666C17.5865 14.1667 18.3327 13.4205 18.3327 12.5V4.16667C18.3327 3.24619 17.5865 2.5 16.666 2.5Z" stroke="#4F4F4F" stroke-linecap="round" stroke-linejoin="round"/>
<path d="M6.66602 17.5H13.3327" stroke="#4F4F4F" stroke-linecap="round" stroke-linejoin="round"/>
<path d="M10 14.1665V17.4998" stroke="#4F4F4F" stroke-linecap="round" stroke-linejoin="round"/>
<path fill-rule="evenodd" clip-rule="evenodd" d="M11.0607 9.51536C11.22 9.27378 11.494 9.11392 11.8041 9.11392C12.2945 9.11392 12.6941 9.51356 12.6941 10.0039C12.6941 10.4943 12.2951 10.8934 11.8047 10.8934C11.3143 10.8934 10.9153 10.4943 10.9153 10.0039C10.9153 9.98351 10.9159 9.96368 10.9171 9.94385L9.45613 8.90779C9.23978 9.21007 8.88582 9.40779 8.48678 9.40779C7.83053 9.40779 7.29688 8.87414 7.29688 8.21789C7.29688 7.56164 7.83053 7.02798 8.48678 7.02798C8.82692 7.02798 9.13401 7.17101 9.35096 7.40058L10.9369 6.6013C10.9225 6.5376 10.9147 6.47149 10.9147 6.40358C10.9147 5.9132 11.3137 5.51416 11.8041 5.51416C12.2945 5.51416 12.6935 5.9132 12.6935 6.40358C12.6935 6.89397 12.2945 7.29301 11.8041 7.29301C11.5367 7.29301 11.2969 7.17462 11.1334 6.98712L9.58714 7.76596C9.64483 7.90539 9.67668 8.05803 9.67668 8.21789C9.67668 8.31825 9.66406 8.415 9.64063 8.50815L11.0607 9.51536ZM12.2615 6.40375C12.2615 6.15195 12.0566 5.94702 11.8048 5.94702C11.553 5.94702 11.348 6.15195 11.348 6.40375C11.348 6.65556 11.553 6.86048 11.8048 6.86048C12.0566 6.86048 12.2615 6.65556 12.2615 6.40375ZM8.48707 8.97512C8.0694 8.97512 7.72986 8.63557 7.72986 8.21791C7.72986 7.80024 8.0694 7.46069 8.48707 7.46069C8.90474 7.46069 9.24428 7.80024 9.24428 8.21791C9.24428 8.63557 8.90474 8.97512 8.48707 8.97512ZM11.348 10.0024C11.348 10.2542 11.553 10.4591 11.8048 10.4591C12.0566 10.4591 12.2615 10.2542 12.2615 10.0024C12.2615 9.75058 12.0566 9.54565 11.8048 9.54565C11.553 9.54565 11.348 9.75058 11.348 10.0024Z" fill="#4F4F4F"/>
</svg>
