<svg width="20" height="20" viewBox="0 0 20 20" fill="none" xmlns="http://www.w3.org/2000/svg">
<mask id="mask0_140_6575" style="mask-type:alpha" maskUnits="userSpaceOnUse" x="0" y="0" width="20" height="20">
<rect width="20" height="20" fill="#D9D9D9"/>
</mask>
<g mask="url(#mask0_140_6575)">
<path d="M9.99967 11.2497C9.41634 11.2497 8.92329 11.0483 8.52051 10.6455C8.11773 10.2427 7.91634 9.74967 7.91634 9.16634V4.16634C7.91634 3.58301 8.11773 3.08995 8.52051 2.68717C8.92329 2.2844 9.41634 2.08301 9.99967 2.08301C10.583 2.08301 11.0761 2.2844 11.4788 2.68717C11.8816 3.08995 12.083 3.58301 12.083 4.16634V9.16634C12.083 9.74967 11.8816 10.2427 11.4788 10.6455C11.0761 11.0483 10.583 11.2497 9.99967 11.2497ZM9.37467 17.2913V14.5413C7.99967 14.3886 6.85745 13.8019 5.94801 12.7813C5.03801 11.7602 4.58301 10.5552 4.58301 9.16634H5.83301C5.83301 10.3191 6.2394 11.3016 7.05217 12.1138C7.8644 12.9266 8.8469 13.333 9.99967 13.333C11.1525 13.333 12.1352 12.9266 12.948 12.1138C13.7602 11.3016 14.1663 10.3191 14.1663 9.16634H15.4163C15.4163 10.5552 14.9616 11.7602 14.0522 12.7813C13.1422 13.8019 11.9997 14.3886 10.6247 14.5413V17.2913H9.37467ZM9.99967 9.99967C10.2358 9.99967 10.4338 9.91967 10.5938 9.75967C10.7533 9.60023 10.833 9.40245 10.833 9.16634V4.16634C10.833 3.93023 10.7533 3.73217 10.5938 3.57217C10.4338 3.41273 10.2358 3.33301 9.99967 3.33301C9.76356 3.33301 9.56579 3.41273 9.40634 3.57217C9.24634 3.73217 9.16634 3.93023 9.16634 4.16634V9.16634C9.16634 9.40245 9.24634 9.60023 9.40634 9.75967C9.56579 9.91967 9.76356 9.99967 9.99967 9.99967Z" fill="white"/>
</g>
</svg>
